<?xml version="1.0" encoding="utf-8"?>
<!-- Generator: Adobe Illustrator 18.1.1, SVG Export Plug-In . SVG Version: 6.00 Build 0)  -->
<svg version="1.1" id="Capa_1" xmlns="http://www.w3.org/2000/svg" xmlns:xlink="http://www.w3.org/1999/xlink" x="0px" y="0px"
	 viewBox="0 0 150 182" enable-background="new 0 0 150 182" xml:space="preserve">
<g>
	<path fill="#EFF0EB" d="M145.4,100c-3-35.9-32.8-64.2-69.3-64.7v-28c1.4-0.5,2.5-1.8,2.5-3.4c0-2-1.6-3.6-3.6-3.6
		c-2,0-3.6,1.6-3.6,3.6c0,1.6,1.1,2.9,2.5,3.4v28C37.4,35.8,7.6,64.1,4.6,100c-2.6,0.7-4.6,3-4.6,5.9c0,2.9,2,5.2,4.6,5.9
		c2.8,34.3,30.1,61.6,64.4,64.5c0.3,3,2.9,5.4,6,5.4s5.7-2.4,6-5.4c34.3-2.9,61.5-30.2,64.4-64.5c2.6-0.7,4.6-3,4.6-5.9
		C150,103.1,148,100.7,145.4,100z M35.7,134.7c-5.9-8.1-9.4-18-9.4-28.7c0-10.8,3.5-20.7,9.4-28.7V134.7z M98.7,63.3
		c0.1,0,0.2,0.1,0.3,0.2l9,7.5c0.5,0.5,3.1,7.4,3.6,8.6l0.4,1.1H89.5V55.6l9,7.5L98.7,63.3z M117.3,81.6c4.1,7.1,6.5,15.4,6.5,24.3
		c0,8.8-2.4,17.1-6.5,24.2V81.6z M84.3,58.2v23.4c0,1.2,0.4,2.2,1.3,3.1c0.9,0.9,1.9,1.3,3.1,1.3h23.4v71.3h-7.7
		c0.5-0.3,1.1-0.6,1.6-0.9l-61.4,0.3c0.4,0.2,0.8,0.4,1.1,0.6h-4.8V58.2H84.3z M75,171.8c-12.3,0-23.9-3.4-33.7-9.3h16.5
		c5.5,1.7,11.2,2.6,17.2,2.6c6,0,11.8-0.9,17.3-2.6h16.5C98.9,168.4,87.3,171.8,75,171.8z M117.3,156.4v-9.2
		c10.4-10.7,16.9-25.2,16.9-41.3c0-32.7-26.5-59.1-59.1-59.1c-9.4,0-18.4,2.2-26.3,6.2H40c-1.2,0-2.2,0.4-3.1,1.3
		c-0.9,0.9-1.3,1.9-1.3,3.1v4.5c-12.1,10.8-19.8,26.6-19.8,44.1c0,17.6,7.7,33.3,19.8,44.1v8.1c0,0.2,0,0.4,0.1,0.6
		c-16.1-12-26.6-31.2-26.6-52.9c0-36.4,29.5-65.9,65.9-65.9s65.9,29.5,65.9,65.9C140.9,126.2,131.7,144.3,117.3,156.4z"/>
	<path fill="#333331" d="M38.2,160.7c-1.2,0-2.2-0.4-3.1-1.3c-0.8-0.9-1.3-1.9-1.3-3.1V55.5c0-1.2,0.4-2.2,1.3-3.1
		c0.8-0.8,1.8-1.3,3.1-1.3h48.6c1.3,0,2.8,0.3,4.4,1c1.6,0.7,2.9,1.5,3.8,2.4L112,71.5c0.9,0.9,1.7,2.2,2.4,3.8c0.7,1.6,1,3.1,1,4.4
		v76.5c0,1.2-0.4,2.2-1.3,3.1c-0.9,0.8-1.9,1.3-3.1,1.3H38.2z M39.1,155.4h71.2V84.1H86.8c-1.2,0-2.2-0.4-3.1-1.3
		c-0.8-0.8-1.3-1.9-1.3-3.1V56.4H39.1V155.4z M87.7,78.9h22.5l-0.4-1.1c-0.4-1.2-0.9-2-1.4-2.5l-17-17c-0.5-0.5-1.4-1-2.6-1.4
		l-1.1-0.4V78.9z"/>
	<g>
		<path fill="#EC671C" d="M64.8,117.9l-4.5-4.5c-0.4-0.4-0.4-1,0-1.4l22.7-22.7c0.4-0.4,1-0.4,1.4,0l4.5,4.5c0.4,0.4,0.4,1,0,1.4
			l-22.7,22.7C65.9,118.3,65.2,118.3,64.8,117.9z"/>
		<path fill="#EC671C" d="M60.4,93.8l4.5-4.5c0.4-0.4,1-0.4,1.4,0L89,112.1c0.4,0.4,0.4,1,0,1.4l-4.5,4.5c-0.4,0.4-1,0.4-1.4,0
			L60.4,95.2C60,94.8,60,94.2,60.4,93.8z"/>
	</g>
	<circle fill="#EC671C" cx="74.7" cy="130.5" r="1.9"/>
</g>
</svg>
